<?xml version="1.0" encoding="utf-8"?>
<!-- Generator: Adobe Illustrator 23.0.1, SVG Export Plug-In . SVG Version: 6.00 Build 0)  -->
<svg version="1.1" id="Layer_1" xmlns="http://www.w3.org/2000/svg" xmlns:xlink="http://www.w3.org/1999/xlink" x="0px" y="0px"
	 viewBox="0 0 32 32" style="enable-background:new 0 0 32 32;" xml:space="preserve">
<style type="text/css">
	.st0{fill:#FFFFFF;stroke:#000000;stroke-miterlimit:10;}
	.st1{fill:#FFFFFF;}
</style>
<g>
	<path class="st0" d="M27.53,21.77l-0.51-0.82C26.71,20.38,25.91,20,25.26,20L7.37,20c-0.66,0-1.45,0.38-1.77,0.95l-0.51,0.82
		C4.77,22.34,5.05,23,5.71,23h7.28c0.66,0,1.34,0.35,1.52,0.98l1.51,5.07c0.18,0.63,0.48,0.68,0.66,0.05l1.51-5.14
		C18.36,23.33,19.05,23,19.7,23h7.22C27.58,23,27.85,22.34,27.53,21.77z"/>
	<path class="st0" d="M15.77,16.25l-0.94,1.67C14.51,18.47,14.77,19,15.4,19h1.88c0.63,0,0.89-0.52,0.57-1.07l-0.94-1.7
		C16.6,15.68,16.08,15.7,15.77,16.25z"/>
	<path class="st0" d="M24.81,17.84L16.85,3.96c-0.31-0.54-0.77-0.53-1.1,0.04L7.81,17.84C7.5,18.38,7.76,19,8.38,19h0.9
		c0.62,0,1.38-0.6,1.69-1.14l4.81-8.48c0.13-0.23,0.3-0.35,0.48-0.38h0.12c0.17,0.02,0.34,0.15,0.48,0.38l4.81,8.48
		C21.97,18.4,22.73,19,23.35,19h0.9C24.87,19,25.12,18.38,24.81,17.84z"/>
</g>
<path class="st1" d="M16,32L16,32C7.16,32,0,24.84,0,16v0C0,7.16,7.16,0,16,0h0c8.84,0,16,7.16,16,16v0C32,24.84,24.84,32,16,32z"/>
<g>
	<path class="st1" d="M27.53,21.77l-0.51-0.82C26.71,20.38,25.91,20,25.26,20L7.37,20c-0.66,0-1.45,0.38-1.77,0.95l-0.51,0.82
		C4.77,22.34,5.05,23,5.71,23h7.28c0.66,0,1.34,0.35,1.52,0.98l1.51,5.07c0.18,0.63,0.48,0.68,0.66,0.05l1.51-5.14
		C18.36,23.33,19.05,23,19.7,23h7.22C27.58,23,27.85,22.34,27.53,21.77z"/>
	<path class="st1" d="M15.77,16.25l-0.94,1.67C14.51,18.47,14.77,19,15.4,19h1.88c0.63,0,0.89-0.52,0.57-1.07l-0.94-1.7
		C16.6,15.68,16.08,15.7,15.77,16.25z"/>
	<path class="st1" d="M24.81,17.84L16.85,3.96c-0.31-0.54-0.77-0.53-1.1,0.04L7.81,17.84C7.5,18.38,7.76,19,8.38,19h0.9
		c0.62,0,1.38-0.6,1.69-1.14l4.81-8.48c0.13-0.23,0.3-0.35,0.48-0.38h0.12c0.17,0.02,0.34,0.15,0.48,0.38l4.81,8.48
		C21.97,18.4,22.73,19,23.35,19h0.9C24.87,19,25.12,18.38,24.81,17.84z"/>
</g>
<text transform="matrix(1 0 0 1 -10 -15)" style="font-family:'MyriadPro-Regular'; font-size:12px;">#292F4A</text>
</svg>
